<?xml version="1.0" encoding="UTF-8"?>
<svg xmlns="http://www.w3.org/2000/svg" xmlns:xlink="http://www.w3.org/1999/xlink" width="35px" height="35px" viewBox="0 0 35 35" version="1.1">
<g id="surface1">
<path style=" stroke:none;fill-rule:nonzero;fill:rgb(1.568628%,0%,0%);fill-opacity:1;" d="M 2.175781 17.644531 C 2.175781 24.835938 7.117188 30.875 13.800781 32.527344 C 14.109375 32.609375 14.449219 32.335938 14.441406 32.019531 L 14.441406 25.3125 C 14.441406 24.972656 14.640625 24.644531 15.015625 24.449219 C 15.394531 24.257812 15.300781 23.574219 14.886719 23.492188 C 12.945312 23.101562 11.289062 22.324219 10.128906 21.289062 C 8.96875 20.25 8.308594 18.988281 8.308594 17.644531 C 8.308594 16.710938 8.644531 15.8125 9.234375 14.996094 C 9.292969 14.914062 9.328125 14.8125 9.332031 14.710938 L 9.332031 9.820312 L 13.386719 11.992188 C 13.511719 12.0625 13.667969 12.070312 13.800781 12.023438 C 14.9375 11.6875 16.175781 11.515625 17.507812 11.515625 C 18.835938 11.515625 20.074219 11.6875 21.210938 12.027344 C 21.347656 12.074219 21.496094 12.0625 21.625 11.996094 L 25.679688 9.820312 L 25.679688 14.707031 C 25.683594 14.808594 25.71875 14.910156 25.777344 14.996094 C 26.371094 15.8125 26.703125 16.710938 26.703125 17.644531 C 26.703125 18.988281 26.046875 20.25 24.886719 21.289062 C 23.722656 22.324219 22.0625 23.101562 20.125 23.492188 C 19.710938 23.570312 19.621094 24.257812 19.996094 24.445312 C 20.371094 24.640625 20.570312 24.96875 20.570312 25.308594 L 20.570312 32.015625 C 20.5625 32.332031 20.90625 32.605469 21.210938 32.527344 C 27.894531 30.875 32.835938 24.832031 32.835938 17.644531 C 32.835938 9.1875 25.964844 2.316406 17.507812 2.316406 C 9.046875 2.316406 2.175781 9.1875 2.175781 17.644531 Z M 17.507812 3.339844 C 25.414062 3.339844 31.8125 9.738281 31.8125 17.644531 C 31.8125 24.117188 27.480469 29.445312 21.59375 31.21875 L 21.59375 25.3125 C 21.59375 24.902344 21.4375 24.539062 21.210938 24.226562 C 22.910156 23.757812 24.460938 23.023438 25.582031 22.023438 C 26.914062 20.839844 27.726562 19.324219 27.726562 17.644531 C 27.726562 16.539062 27.324219 15.527344 26.703125 14.609375 L 26.703125 8.960938 C 26.707031 8.601562 26.25 8.332031 25.9375 8.511719 L 21.242188 11.035156 C 20.078125 10.71875 18.832031 10.492188 17.507812 10.492188 C 16.183594 10.492188 14.933594 10.714844 13.769531 11.035156 L 9.074219 8.515625 C 8.765625 8.335938 8.304688 8.601562 8.308594 8.960938 L 8.308594 14.613281 C 7.6875 15.527344 7.285156 16.539062 7.285156 17.648438 C 7.285156 19.324219 8.097656 20.839844 9.425781 22.023438 C 10.550781 23.027344 12.105469 23.757812 13.800781 24.226562 C 13.574219 24.539062 13.417969 24.902344 13.417969 25.3125 L 13.417969 27.039062 C 12.304688 27.453125 11.570312 27.539062 11.117188 27.453125 C 10.628906 27.355469 10.367188 27.105469 10.066406 26.6875 C 9.460938 25.84375 8.867188 24.292969 6.902344 23.789062 C 6.234375 23.609375 6.007812 24.605469 6.648438 24.777344 C 8.1875 25.175781 8.492188 26.257812 9.234375 27.292969 C 9.605469 27.808594 10.136719 28.289062 10.925781 28.441406 C 11.585938 28.570312 12.378906 28.472656 13.417969 28.121094 L 13.417969 31.21875 C 7.535156 29.449219 3.199219 24.117188 3.199219 17.648438 C 3.199219 9.738281 9.597656 3.339844 17.507812 3.339844 Z M 17.507812 3.339844 "/>
</g>
</svg>
